<svg xmlns="http://www.w3.org/2000/svg" viewBox="0 0 128 128" role="img" aria-label="ProfilePilot Kit mark">
  <defs>
    <linearGradient id="bg" x1="18" y1="112" x2="110" y2="16" gradientUnits="userSpaceOnUse">
      <stop offset="0" stop-color="#020617"/>
      <stop offset="0.52" stop-color="#111827"/>
      <stop offset="1" stop-color="#1e1b4b"/>
    </linearGradient>
    <linearGradient id="teal" x1="31" y1="92" x2="102" y2="23" gradientUnits="userSpaceOnUse">
      <stop offset="0" stop-color="#0f766e"/>
      <stop offset="0.55" stop-color="#14b8a6"/>
      <stop offset="1" stop-color="#67e8f9"/>
    </linearGradient>
    <linearGradient id="purple" x1="66" y1="34" x2="103" y2="73" gradientUnits="userSpaceOnUse">
      <stop offset="0" stop-color="#6366f1"/>
      <stop offset="1" stop-color="#14b8a6"/>
    </linearGradient>
  </defs>
  <rect width="128" height="128" rx="30" fill="url(#bg)"/>
  <circle cx="37" cy="47" r="16" fill="#f8fafc"/>
  <path d="M13 99c2.3-20.4 11.2-31.2 25-31.2S60.7 78.6 63 99H13Z" fill="url(#teal)"/>
  <rect x="48" y="38" width="57" height="54" rx="13" fill="#f8fafc" stroke="#020617" stroke-width="6"/>
  <path d="M48 51c0-7.2 5.8-13 13-13h31c7.2 0 13 5.8 13 13v4H48v-4Z" fill="url(#purple)"/>
  <path d="M61 69.5 72 80.5 92 60" fill="none" stroke="#0f766e" stroke-width="9" stroke-linecap="round" stroke-linejoin="round"/>
  <path d="M60 86h36" stroke="#020617" stroke-width="7" stroke-linecap="round" opacity=".85"/>
  <path d="M84 24 116 13 103 49 96 36 82 31 84 24Z" fill="#f8fafc"/>
  <path d="M84 24 116 13 96 36 82 31 84 24Z" fill="url(#teal)"/>
  <path d="M96 36 103 49 116 13" fill="#e0f2fe"/>
</svg>
